<?xml version="1.0" encoding="UTF-8" standalone="no"?>
<!-- Created with Inkscape (http://www.inkscape.org/) -->

<svg
   xmlns:dc="http://purl.org/dc/elements/1.1/"
   xmlns:cc="http://creativecommons.org/ns#"
   xmlns:rdf="http://www.w3.org/1999/02/22-rdf-syntax-ns#"
   xmlns:svg="http://www.w3.org/2000/svg"
   xmlns="http://www.w3.org/2000/svg"
   version="1.0"
   width="93.599998"
   height="144"
   viewBox="0 0 93.599997 144"
   id="Layer_1"
   xml:space="preserve"><metadata
   id="metadata3545"><rdf:RDF><cc:Work
       rdf:about=""><dc:format>image/svg+xml</dc:format><dc:type
         rdf:resource="http://purl.org/dc/dcmitype/StillImage" /><dc:title></dc:title></cc:Work></rdf:RDF></metadata><defs
   id="defs3543" />
<g
   transform="scale(1.2529721,1.1771432)"
   id="g3286">
	<g
   transform="translate(0,248.4)"
   id="g3455">
		<path
   d="m 74.4,-126.1 v -118.3 c 0,-1.9 -1.7,-4 -3.6,-4 H 3.6 c -1.9,0 -3.6,2 -3.6,4 l 0,118.3 h 74.4 z"
   id="rect3613"
   style="fill:#1a5d7b;stroke:#010101;stroke-width:0.28799999" />
	</g>
	<rect
   width="43.099998"
   height="7.1999998"
   x="22.9"
   y="113.9"
   id="rect3458"
   style="opacity:0.5;fill:#ffffff" />
	<g
   id="g3291">
		<g
   transform="matrix(0,1,-1,0,165.6,248.4)"
   id="g3460">
			<path
   d="m -130.9,127.2 c -1.4,0 -2.5,-1.1 -2.5,-2.5 0,-1.4 1.1,-2.5 2.5,-2.5 1.4,0 2.5,1.1 2.5,2.5 0,1.4 -1.1,2.5 -2.5,2.5 z"
   id="connector26pin"
   style="fill:none" />
		</g>
		<g
   transform="matrix(0,1,-1,0,0,-481.888)"
   id="g3463">
			
				<rect
   width="1.9"
   height="1.9"
   x="598.5"
   y="-41.799999"
   transform="matrix(2.578893e-6,1,-1,2.578893e-6,558.5855,-640.285)"
   id="rect5212"
   style="fill:#dfcd87" />
		</g>
		<g
   transform="translate(0,-481.888)"
   id="g3466">
			<path
   d="m 41.8,598.5 -0.3,0.3 v 1.4 h -1.4 l -0.3,0.3 h 1.9 v -2 l 0.1,0 z"
   id="path5214"
   style="fill:#e8ddaf" />
		</g>
		<g
   transform="translate(0,-481.888)"
   id="g3469">
			<path
   d="m 39.9,600.4 0.3,-0.3 v -1.4 h 1.4 l 0.3,-0.3 H 40 l -0.1,2 0,0 z"
   id="path5216"
   style="fill:#c9ac36" />
		</g>
	</g>
	<g
   id="g3301">
		<g
   transform="matrix(0,1,-1,0,165.6,219.6)"
   id="g3481">
			<path
   d="m -102.1,98.5 c -1.4,0 -2.5,-1.1 -2.5,-2.5 0,-1.4 1.1,-2.5 2.5,-2.5 1.4,0 2.5,1.1 2.5,2.5 0,1.4 -1.1,2.5 -2.5,2.5 z"
   id="connector30pin"
   style="fill:none" />
		</g>
		<g
   transform="matrix(0,1,-1,0,0,-481.888)"
   id="g3484">
			
				<rect
   width="1.9"
   height="1.9"
   x="598.59998"
   y="-70.5"
   transform="matrix(2.578893e-6,1,-1,2.578893e-6,529.9223,-669.0375)"
   id="rect5226"
   style="fill:#dfcd87" />
		</g>
		<g
   transform="translate(0,-481.888)"
   id="g3487">
			<path
   d="m 70.4,598.5 -0.3,0.3 v 1.4 h -1.4 l -0.3,0.3 h 1.9 l 0.1,-2 0,0 z"
   id="path5228"
   style="fill:#ffeeaa" />
		</g>
		<g
   transform="translate(0,-481.888)"
   id="g3490">
			<path
   d="m 68.6,600.4 0.3,-0.3 v -1.4 h 1.4 l 0.3,-0.3 h -1.9 v 2 l -0.1,0 z"
   id="path5230"
   style="fill:#c9ac36" />
		</g>
	</g>
	<g
   id="g3311">
		<g
   transform="matrix(0,1,-1,0,165.6,226.8)"
   id="g3478">
			<path
   d="m -109.3,105.7 c -1.4,0 -2.5,-1.1 -2.5,-2.5 0,-1.4 1.1,-2.5 2.5,-2.5 1.4,0 2.5,1.1 2.5,2.5 0,1.4 -1.1,2.5 -2.5,2.5 z"
   id="connector29pin"
   style="fill:none" />
		</g>
		<g
   transform="matrix(0,1,-1,0,0,-481.888)"
   id="g3493">
			
				<rect
   width="1.9"
   height="1.9"
   x="598.5"
   y="-63.299999"
   transform="matrix(2.578893e-6,1,-1,2.578893e-6,537.0881,-661.8494)"
   id="rect5232"
   style="fill:#dfcd87" />
		</g>
		<g
   transform="translate(0,-481.888)"
   id="g3496">
			<path
   d="m 63.3,598.5 -0.3,0.3 v 1.4 h -1.4 l -0.3,0.3 h 1.9 l 0.1,-2 0,0 z"
   id="path5234"
   style="fill:#e8ddaf" />
		</g>
		<g
   transform="translate(0,-481.888)"
   id="g3499">
			<path
   d="m 61.5,600.4 0.3,-0.3 v -1.4 h 1.4 l 0.3,-0.3 h -1.9 l -0.1,2 0,0 z"
   id="path5236"
   style="fill:#c9ac36" />
		</g>
	</g>
	<g
   id="g3321">
		<g
   transform="matrix(0,1,-1,0,165.6,234)"
   id="g3475">
			<path
   d="m -116.5,112.8 c -1.4,0 -2.5,-1.1 -2.5,-2.5 0,-1.4 1.1,-2.5 2.5,-2.5 1.4,0 2.5,1.1 2.5,2.5 0,1.4 -1.1,2.5 -2.5,2.5 z"
   id="connector28pin"
   style="fill:none" />
		</g>
		<g
   transform="matrix(0,1,-1,0,0,-481.888)"
   id="g3502">
			
				<rect
   width="1.9"
   height="1.9"
   x="598.5"
   y="-56.099998"
   transform="matrix(2.578893e-6,1,-1,2.578893e-6,544.2538,-654.6612)"
   id="rect5238"
   style="fill:#dfcd87" />
		</g>
		<g
   transform="translate(0,-481.888)"
   id="g3505">
			<path
   d="m 56.1,598.5 -0.3,0.3 v 1.4 h -1.4 l -0.3,0.3 H 56 v -2 l 0.1,0 z"
   id="path5240"
   style="fill:#e8ddaf" />
		</g>
		<g
   transform="translate(0,-481.888)"
   id="g3508">
			<path
   d="m 54.3,600.4 0.3,-0.3 v -1.4 H 56 l 0.3,-0.3 h -1.9 c -0.1,0.1 -0.1,2 -0.1,2 z"
   id="path5242"
   style="fill:#c9ac36" />
		</g>
	</g>
	<g
   id="g3331">
		<g
   transform="matrix(0,1,-1,0,165.6,241.2)"
   id="g3472">
			<path
   d="m -123.7,120 c -1.4,0 -2.5,-1.1 -2.5,-2.5 0,-1.4 1.1,-2.5 2.5,-2.5 1.4,0 2.5,1.1 2.5,2.5 0,1.4 -1.1,2.5 -2.5,2.5 z"
   id="connector27pin"
   style="fill:none" />
		</g>
		<g
   transform="matrix(0,1,-1,0,0,-481.888)"
   id="g3511">
			
				<rect
   width="1.9"
   height="1.9"
   x="598.5"
   y="-49"
   transform="matrix(2.578893e-6,1,-1,2.578893e-6,551.4197,-647.4731)"
   id="rect5244"
   style="fill:#dfcd87" />
		</g>
		<g
   transform="translate(0,-481.888)"
   id="g3514">
			<path
   d="m 49,598.5 -0.3,0.3 v 1.4 h -1.4 l -0.3,0.3 h 2 l 0,-2 0,0 z"
   id="path5246"
   style="fill:#e8ddaf" />
		</g>
		<g
   transform="translate(0,-481.888)"
   id="g3517">
			<path
   d="m 47.1,600.4 0.3,-0.3 v -1.4 h 1.4 l 0.3,-0.3 h -1.9 l -0.1,2 0,0 z"
   id="path5248"
   style="fill:#c9ac36" />
		</g>
	</g>
	<g
   id="g3341">
		<g
   transform="matrix(0,1,-1,0,165.6,284.4)"
   id="g3520">
			<path
   d="m -166.9,163.1 c -1.4,0 -2.5,-1.1 -2.5,-2.5 0,-1.4 1.1,-2.5 2.5,-2.5 1.4,0 2.5,1.1 2.5,2.5 0,1.4 -1.1,2.5 -2.5,2.5 z"
   id="connector21pin"
   style="fill:none" />
		</g>
		<g
   transform="matrix(0,1,-1,0,0,-481.888)"
   id="g3523">
			
				<rect
   width="1.9"
   height="1.9"
   x="598.5"
   y="-5.9000001"
   transform="matrix(2.578893e-6,1,-1,2.578893e-6,594.4991,-604.4288)"
   id="rect5252"
   style="fill:#dfcd87" />
		</g>
		<g
   transform="translate(0,-481.888)"
   id="g3526">
			<path
   d="m 5.9,598.5 -0.3,0.3 v 1.4 H 4.3 L 4,600.4 h 1.9 l 0,-1.9 0,0 z"
   id="path5254"
   style="fill:#e8ddaf" />
		</g>
		<g
   transform="translate(0,-481.888)"
   id="g3529">
			<path
   d="m 4,600.4 0.3,-0.3 v -1.4 H 5.7 L 6,598.4 H 4 l 0,2 0,0 z"
   id="path5256"
   style="fill:#c9ac36" />
		</g>
	</g>
	<g
   id="g3351">
		<g
   transform="matrix(0,1,-1,0,165.6,255.6)"
   id="g3541">
			<path
   d="m -138.1,134.4 c -1.4,0 -2.5,-1.1 -2.5,-2.5 0,-1.4 1.1,-2.5 2.5,-2.5 1.4,0 2.5,1.1 2.5,2.5 0,1.4 -1.1,2.5 -2.5,2.5 z"
   id="connector25pin"
   style="fill:none" />
		</g>
		<g
   transform="matrix(0,1,-1,0,0,-481.888)"
   id="g3544">
			
				<rect
   width="1.9"
   height="1.9"
   x="598.5"
   y="-34.599998"
   transform="matrix(2.578893e-6,1,-1,2.578893e-6,565.7513,-633.0968)"
   id="rect5266"
   style="fill:#dfcd87" />
		</g>
		<g
   transform="translate(0,-481.888)"
   id="g3547">
			<path
   d="m 34.6,598.5 -0.3,0.3 v 1.4 H 33 l -0.3,0.3 h 1.9 l 0,-2 0,0 z"
   id="path5268"
   style="fill:#ffeeaa" />
		</g>
		<g
   transform="translate(0,-481.888)"
   id="g3550">
			<path
   d="m 32.7,600.4 0.3,-0.3 v -1.4 h 1.4 l 0.3,-0.3 h -1.9 l -0.1,2 0,0 z"
   id="path5270"
   style="fill:#c9ac36" />
		</g>
	</g>
	<g
   id="g3361">
		<g
   transform="matrix(0,1,-1,0,165.6,262.8)"
   id="g3538">
			<path
   d="m -145.3,141.6 c -1.4,0 -2.5,-1.1 -2.5,-2.5 0,-1.4 1.1,-2.5 2.5,-2.5 1.4,0 2.5,1.1 2.5,2.5 0,1.4 -1.1,2.5 -2.5,2.5 z"
   id="connector24pin"
   style="fill:none" />
		</g>
		<g
   transform="matrix(0,1,-1,0,0,-481.888)"
   id="g3553">
			
				<rect
   width="1.9"
   height="1.9"
   x="598.5"
   y="-27.4"
   transform="matrix(2.578893e-6,1,-1,2.578893e-6,572.9172,-625.9086)"
   id="rect5272"
   style="fill:#dfcd87" />
		</g>
		<g
   transform="translate(0,-481.888)"
   id="g3556">
			<path
   d="m 27.4,598.5 -0.3,0.3 v 1.4 h -1.4 l -0.3,0.3 h 1.9 v -2 z"
   id="path5274"
   style="fill:#e8ddaf" />
		</g>
		<g
   transform="translate(0,-481.888)"
   id="g3559">
			<path
   d="m 25.5,600.4 0.3,-0.3 v -1.4 h 1.4 l 0.3,-0.3 h -1.9 l -0.1,2 0,0 z"
   id="path5276"
   style="fill:#c9ac36" />
		</g>
	</g>
	<g
   id="g3371">
		<g
   transform="matrix(0,1,-1,0,165.6,270)"
   id="g3535">
			<path
   d="m -152.5,148.8 c -1.4,0 -2.5,-1.1 -2.5,-2.5 0,-1.4 1.1,-2.5 2.5,-2.5 1.4,0 2.5,1.1 2.5,2.5 0,1.4 -1.1,2.5 -2.5,2.5 z"
   id="connector23pin"
   style="fill:none" />
		</g>
		<g
   transform="matrix(0,1,-1,0,0,-481.888)"
   id="g3562">
			
				<rect
   width="1.9"
   height="1.9"
   x="598.59998"
   y="-20.200001"
   transform="matrix(2.578893e-6,1,-1,2.578893e-6,580.1673,-618.805)"
   id="rect5278"
   style="fill:#dfcd87" />
		</g>
		<g
   transform="translate(0,-481.888)"
   id="g3565">
			<path
   d="m 20.2,598.5 -0.3,0.3 v 1.4 h -1.4 l -0.3,0.3 h 1.9 l 0.1,-2 0,0 z"
   id="path5280"
   style="fill:#e8ddaf" />
		</g>
		<g
   transform="translate(0,-481.888)"
   id="g3568">
			<path
   d="m 18.3,600.4 0.3,-0.3 v -1.4 H 20 l 0.3,-0.3 h -1.9 c -0.1,0.1 -0.1,2 -0.1,2 z"
   id="path5282"
   style="fill:#c9ac36" />
		</g>
	</g>
	<g
   id="g3381">
		<g
   transform="matrix(0,1,-1,0,165.6,277.2)"
   id="g3532">
			<path
   d="m -159.7,156 c -1.4,0 -2.5,-1.1 -2.5,-2.5 0,-1.4 1.1,-2.5 2.5,-2.5 1.4,0 2.5,1.1 2.5,2.5 0,1.4 -1.1,2.5 -2.5,2.5 z"
   id="connector22pin"
   style="fill:none" />
		</g>
		<g
   transform="matrix(0,1,-1,0,0,-481.888)"
   id="g3571">
			
				<rect
   width="1.9"
   height="1.9"
   x="598.5"
   y="-13.1"
   transform="matrix(2.578893e-6,1,-1,2.578893e-6,587.3331,-611.6168)"
   id="rect5284"
   style="fill:#dfcd87" />
		</g>
		<g
   transform="translate(0,-481.888)"
   id="g3574">
			<path
   d="m 13.1,598.5 -0.3,0.3 v 1.4 h -1.4 l -0.3,0.3 H 13 l 0.1,-2 0,0 z"
   id="path5286"
   style="fill:#e8ddaf" />
		</g>
		<g
   transform="translate(0,-481.888)"
   id="g3577">
			<path
   d="m 11.2,600.4 0.3,-0.3 v -1.4 h 1.4 l 0.3,-0.3 h -1.9 l -0.1,2 0,0 z"
   id="path5288"
   style="fill:#c9ac36" />
		</g>
	</g>
	<circle
   cx="67.699997"
   cy="7.4000001"
   r="4"
   id="circle3580"
   style="fill:#45b649" />
	<circle
   cx="6.8000002"
   cy="7.4000001"
   r="4"
   id="circle3582"
   style="fill:#ca3927" />
	<g
   id="g3584">
		<g
   id="breadboard_1_">
			<g
   id="g3587">
				<path
   d="M 48.5,3.4 72.3,24 V 96.1 H 2.8 V 24 L 26.6,3.4 h 21.9 z"
   id="path3589"
   style="fill:#117491" />
				<path
   d="M 9.8,60 H 64.3 M 9.8,78.8 h 54.5"
   id="path3591"
   style="fill:none;stroke:#ffffff" />
				<polygon
   points="18.4,75.2 18.4,75.5 23.5,75.5 23.2,74.8 23,74.6 22.7,74.1 20.4,68 24.6,63.8 25.4,63 26.5,62.4 23.5,62.4 23.4,62.7 23.2,63 23,63.3 22.6,63.5 19.8,66.5 18.5,63.5 18.4,63.3 18.4,62.7 18.5,62.4 13.4,62.4 13.8,63 14.1,63.3 16.7,69.4 11.7,74.1 11.2,74.6 10.7,74.8 9.8,75.5 12.8,75.5 12.9,75 13.2,74.8 13.4,74.6 17.2,71 18,73.2 18.4,74.3 "
   id="polygon3593"
   style="fill:#ffffff" />
				<path
   d="M 63.7,66.8 63.6,66.5 63.5,66.2 63.2,66 62.8,66 62.5,65.9 h -0.3 -6.5 c -1.9,0.1 -2.5,0.9 -3,2.6 l -1.1,4.6 c -0.2,1.5 -0.1,2.5 1.7,2.5 h 8.6 l 0.5,-1.7 -0.6,0.1 -0.5,0.1 h -6 L 55.1,74 H 55 v -0.1 l -0.2,-0.2 0.1,-0.4 0.4,-1.7 H 63 l 0.7,-3 0.1,-0.5 v -0.9 l -0.1,-0.4 z m -3.3,1.3 -0.5,2 h -4.1 l 0.4,-2 0.1,-0.4 0.1,-0.1 0.3,-0.1 h 0.3 3 0.3 l 0.1,0.1 0,0.5 0,0 z"
   id="path3595"
   style="fill:#ffffff" />
				<path
   d="M 50.9,66.5 50.8,66.2 50.5,66 50.1,66 49.7,65.9 h -0.4 -6.5 c -1.9,0.1 -2.5,0.9 -3,2.6 l -1.1,4.6 c -0.2,1.5 -0.1,2.5 1.7,2.5 H 49 L 49.5,73.9 49,74 48.5,74.1 h -6 l -0.2,-0.1 0,0 v -0.1 l -0.1,-0.2 0.1,-0.4 0.4,-1.7 h 7.7 l 0.7,-3 0.1,-0.6 v -0.9 l -0.1,-0.3 -0.2,-0.3 z m -3.1,1.6 -0.5,2 h -4.1 l 0.3,-2 0.1,-0.4 0.2,-0.1 0.3,-0.1 h 0.2 3 0.3 l 0.1,0.1 0.1,0.5 0,0 z"
   id="path3597"
   style="fill:#ffffff" />
				<path
   d="M 38.4,62.6 38.1,62.5 37.7,62.4 H 37.2 27 v 0.9 l -0.1,0.9 -2.5,9.6 -0.3,0.8 -0.1,0.7 -0.3,0.4 h 10.1 0.7 l 0.6,-0.2 c 0.8,-0.4 1.7,-0.7 1.9,-1.9 l 0.3,-0.6 0.5,-2.1 v -1.2 l -0.3,-0.3 -0.2,-0.1 -0.3,0 -0.4,-0.1 h -1.2 c 1.2,-0.4 1.6,0.3 2.6,-0.8 l 0.3,-0.3 0.2,-0.5 c 0.2,-1 1.5,-4.7 -0.1,-5 z m -4.2,8 -0.5,2.5 -0.3,0.4 -0.1,0.3 -0.3,0.1 h -0.3 -4.4 l 1.1,-4.1 h 4.4 l 0.1,0.1 H 34 l 0.1,0.1 0.1,0.3 c 0,-0.1 0,0.3 0,0.3 z m 1.3,-5.6 -0.5,2.1 -0.1,0.4 -0.1,0.3 -0.3,0.2 -0.4,0.1 h -4.2 l 0.9,-4 h 4.3 0.1 l 0.1,0.1 0.1,0.1 0.1,0.7 0,0 z"
   id="path3599"
   style="fill:#ffffff" />
			</g>
			<g
   id="g3601">
				<g
   id="g3603">
					<rect
   width="2.4000001"
   height="2.4000001"
   x="3.5"
   y="26.6"
   id="rect3605"
   style="fill:#8d8c8c" />
					<rect
   width="1.2"
   height="1.2"
   x="4.0999999"
   y="27.1"
   id="rect3607"
   style="fill:#8c8664" />
					<polygon
   points="5.8,26.6 3.6,26.6 4.1,27.1 5.2,27.1 "
   id="polygon3609"
   style="fill:#b8af83" />
					<polygon
   points="5.8,28.8 5.2,28.3 5.2,27.1 5.8,26.6 "
   id="polygon3611"
   style="fill:#817a5c" />
					<polygon
   points="3.6,28.8 4.1,28.3 5.2,28.3 5.8,28.8 "
   id="polygon3613"
   style="fill:#5f5c44" />
					<polygon
   points="3.6,28.8 3.6,26.6 4.1,27.1 4.1,28.3 "
   id="polygon3615"
   style="fill:#9a916c" />
					<rect
   width="2.4000001"
   height="2.4000001"
   x="3.5"
   y="33.799999"
   id="rect3617"
   style="fill:#8d8c8c" />
					<rect
   width="1.2"
   height="1.2"
   x="4.0999999"
   y="34.400002"
   id="rect3619"
   style="fill:#8c8664" />
					<polygon
   points="5.8,33.8 3.6,33.8 4.1,34.4 5.2,34.4 "
   id="polygon3621"
   style="fill:#b8af83" />
					<polygon
   points="5.8,36.1 5.2,35.6 5.2,34.4 5.8,33.8 "
   id="polygon3623"
   style="fill:#817a5c" />
					<polygon
   points="3.6,36.1 4.1,35.6 5.2,35.6 5.8,36.1 "
   id="polygon3625"
   style="fill:#5f5c44" />
					<polygon
   points="3.6,36.1 3.6,33.8 4.1,34.4 4.1,35.6 "
   id="polygon3627"
   style="fill:#9a916c" />
					<rect
   width="2.4000001"
   height="2.4000001"
   x="3.5"
   y="41.099998"
   id="rect3629"
   style="fill:#8d8c8c" />
					<rect
   width="1.2"
   height="1.2"
   x="4.0999999"
   y="41.700001"
   id="rect3631"
   style="fill:#8c8664" />
					<polygon
   points="5.8,41.1 3.6,41.1 4.1,41.7 5.2,41.7 "
   id="polygon3633"
   style="fill:#b8af83" />
					<polygon
   points="5.8,43.5 5.2,43 5.2,41.7 5.8,41.1 "
   id="polygon3635"
   style="fill:#817a5c" />
					<polygon
   points="3.6,43.5 4.1,43 5.2,43 5.8,43.5 "
   id="polygon3637"
   style="fill:#5f5c44" />
					<polygon
   points="3.6,43.5 3.6,41.1 4.1,41.7 4.1,43 "
   id="polygon3639"
   style="fill:#9a916c" />
					<rect
   width="2.4000001"
   height="2.4000001"
   x="3.5"
   y="48.5"
   id="rect3641"
   style="fill:#8d8c8c" />
					<rect
   width="1.2"
   height="1.2"
   x="4.0999999"
   y="49"
   id="rect3643"
   style="fill:#8c8664" />
					<polygon
   points="5.8,48.5 3.6,48.5 4.1,49 5.2,49 "
   id="polygon3645"
   style="fill:#b8af83" />
					<polygon
   points="5.8,50.7 5.2,50.2 5.2,49 5.8,48.5 "
   id="polygon3647"
   style="fill:#817a5c" />
					<polygon
   points="3.6,50.7 4.1,50.2 5.2,50.2 5.8,50.7 "
   id="polygon3649"
   style="fill:#5f5c44" />
					<polygon
   points="3.6,50.7 3.6,48.5 4.1,49 4.1,50.2 "
   id="polygon3651"
   style="fill:#9a916c" />
					<rect
   width="2.4000001"
   height="2.4000001"
   x="3.5"
   y="55.700001"
   id="rect3653"
   style="fill:#8d8c8c" />
					<rect
   width="1.2"
   height="1.2"
   x="4.0999999"
   y="56.299999"
   id="rect3655"
   style="fill:#8c8664" />
					<polygon
   points="5.8,55.7 3.6,55.7 4.1,56.3 5.2,56.3 "
   id="polygon3657"
   style="fill:#b8af83" />
					<polygon
   points="5.8,58 5.2,57.5 5.2,56.3 5.8,55.7 "
   id="polygon3659"
   style="fill:#817a5c" />
					<polygon
   points="3.6,58 4.1,57.5 5.2,57.5 5.8,58 "
   id="polygon3661"
   style="fill:#5f5c44" />
					<polygon
   points="3.6,58 3.6,55.7 4.1,56.3 4.1,57.5 "
   id="polygon3663"
   style="fill:#9a916c" />
					<rect
   width="2.4000001"
   height="2.4000001"
   x="3.5"
   y="63"
   id="rect3665"
   style="fill:#8d8c8c" />
					<rect
   width="1.2"
   height="1.2"
   x="4.0999999"
   y="63.599998"
   id="rect3667"
   style="fill:#8c8664" />
					<polygon
   points="5.8,63 3.6,63 4.1,63.6 5.2,63.6 "
   id="polygon3669"
   style="fill:#b8af83" />
					<polygon
   points="5.8,65.4 5.2,64.9 5.2,63.6 5.8,63 "
   id="polygon3671"
   style="fill:#817a5c" />
					<polygon
   points="3.6,65.4 4.1,64.9 5.2,64.9 5.8,65.4 "
   id="polygon3673"
   style="fill:#5f5c44" />
					<polygon
   points="3.6,65.4 3.6,63 4.1,63.6 4.1,64.9 "
   id="polygon3675"
   style="fill:#9a916c" />
					<rect
   width="2.4000001"
   height="2.4000001"
   x="3.5"
   y="70.300003"
   id="rect3677"
   style="fill:#8d8c8c" />
					<rect
   width="1.2"
   height="1.2"
   x="4.0999999"
   y="71"
   id="rect3679"
   style="fill:#8c8664" />
					<polygon
   points="5.8,70.3 3.6,70.3 4.1,71 5.2,71 "
   id="polygon3681"
   style="fill:#b8af83" />
					<polygon
   points="5.8,72.6 5.2,72.1 5.2,71 5.8,70.3 "
   id="polygon3683"
   style="fill:#817a5c" />
					<polygon
   points="3.6,72.6 4.1,72.1 5.2,72.1 5.8,72.6 "
   id="polygon3685"
   style="fill:#5f5c44" />
					<polygon
   points="3.6,72.6 3.6,70.3 4.1,71 4.1,72.1 "
   id="polygon3687"
   style="fill:#9a916c" />
					<rect
   width="2.4000001"
   height="2.4000001"
   x="3.5"
   y="77.599998"
   id="rect3689"
   style="fill:#8d8c8c" />
					<rect
   width="1.2"
   height="1.2"
   x="4.0999999"
   y="78.199997"
   id="rect3691"
   style="fill:#8c8664" />
					<polygon
   points="5.8,77.6 3.6,77.6 4.1,78.2 5.2,78.2 "
   id="polygon3693"
   style="fill:#b8af83" />
					<polygon
   points="5.8,79.9 5.2,79.4 5.2,78.2 5.8,77.6 "
   id="polygon3695"
   style="fill:#817a5c" />
					<polygon
   points="3.6,79.9 4.1,79.4 5.2,79.4 5.8,79.9 "
   id="polygon3697"
   style="fill:#5f5c44" />
					<polygon
   points="3.6,79.9 3.6,77.6 4.1,78.2 4.1,79.4 "
   id="polygon3699"
   style="fill:#9a916c" />
					<rect
   width="2.4000001"
   height="2.4000001"
   x="3.5"
   y="84.900002"
   id="rect3701"
   style="fill:#8d8c8c" />
					<rect
   width="1.2"
   height="1.2"
   x="4.0999999"
   y="85.5"
   id="rect3703"
   style="fill:#8c8664" />
					<polygon
   points="5.8,84.9 3.6,84.9 4.1,85.5 5.2,85.5 "
   id="polygon3705"
   style="fill:#b8af83" />
					<polygon
   points="5.8,87.3 5.2,86.8 5.2,85.5 5.8,84.9 "
   id="polygon3707"
   style="fill:#817a5c" />
					<polygon
   points="3.6,87.3 4.1,86.8 5.2,86.8 5.8,87.3 "
   id="polygon3709"
   style="fill:#5f5c44" />
					<polygon
   points="3.6,87.3 3.6,84.9 4.1,85.5 4.1,86.8 "
   id="polygon3711"
   style="fill:#9a916c" />
					<rect
   width="2.4000001"
   height="2.4000001"
   x="3.5"
   y="92.199997"
   id="rect3713"
   style="fill:#8d8c8c" />
					<rect
   width="1.2"
   height="1.2"
   x="4.0999999"
   y="92.900002"
   id="rect3715"
   style="fill:#8c8664" />
					<polygon
   points="5.8,92.2 3.6,92.2 4.1,92.9 5.2,92.9 "
   id="polygon3717"
   style="fill:#b8af83" />
					<polygon
   points="5.8,94.5 5.2,94 5.2,92.9 5.8,92.2 "
   id="polygon3719"
   style="fill:#817a5c" />
					<polygon
   points="3.6,94.5 4.1,94 5.2,94 5.8,94.5 "
   id="polygon3721"
   style="fill:#5f5c44" />
					<polygon
   points="3.6,94.5 3.6,92.2 4.1,92.9 4.1,94 "
   id="polygon3723"
   style="fill:#9a916c" />
				</g>
				<g
   id="g3725">
					<rect
   width="2.4000001"
   height="2.4000001"
   x="69.199997"
   y="26.6"
   id="rect3727"
   style="fill:#8d8c8c" />
					<rect
   width="1.2"
   height="1.2"
   x="69.800003"
   y="27.1"
   id="rect3729"
   style="fill:#8c8664" />
					<polygon
   points="71.5,26.6 69.3,26.6 69.8,27.1 71,27.1 "
   id="polygon3731"
   style="fill:#b8af83" />
					<polygon
   points="71.5,28.8 71,28.3 71,27.1 71.5,26.6 "
   id="polygon3733"
   style="fill:#817a5c" />
					<polygon
   points="69.3,28.8 69.8,28.3 71,28.3 71.5,28.8 "
   id="polygon3735"
   style="fill:#5f5c44" />
					<polygon
   points="69.3,28.8 69.3,26.6 69.8,27.1 69.8,28.3 "
   id="polygon3737"
   style="fill:#9a916c" />
					<rect
   width="2.4000001"
   height="2.4000001"
   x="69.199997"
   y="33.799999"
   id="rect3739"
   style="fill:#8d8c8c" />
					<rect
   width="1.2"
   height="1.2"
   x="69.800003"
   y="34.400002"
   id="rect3741"
   style="fill:#8c8664" />
					<polygon
   points="71.5,33.8 69.3,33.8 69.8,34.4 71,34.4 "
   id="polygon3743"
   style="fill:#b8af83" />
					<polygon
   points="71.5,36.1 71,35.6 71,34.4 71.5,33.8 "
   id="polygon3745"
   style="fill:#817a5c" />
					<polygon
   points="69.3,36.1 69.8,35.6 71,35.6 71.5,36.1 "
   id="polygon3747"
   style="fill:#5f5c44" />
					<polygon
   points="69.3,36.1 69.3,33.8 69.8,34.4 69.8,35.6 "
   id="polygon3749"
   style="fill:#9a916c" />
					<rect
   width="2.4000001"
   height="2.4000001"
   x="69.199997"
   y="41.099998"
   id="rect3751"
   style="fill:#8d8c8c" />
					<rect
   width="1.2"
   height="1.2"
   x="69.800003"
   y="41.700001"
   id="rect3753"
   style="fill:#8c8664" />
					<polygon
   points="71.5,41.1 69.3,41.1 69.8,41.7 71,41.7 "
   id="polygon3755"
   style="fill:#b8af83" />
					<polygon
   points="71.5,43.5 71,43 71,41.7 71.5,41.1 "
   id="polygon3757"
   style="fill:#817a5c" />
					<polygon
   points="69.3,43.5 69.8,43 71,43 71.5,43.5 "
   id="polygon3759"
   style="fill:#5f5c44" />
					<polygon
   points="69.3,43.5 69.3,41.1 69.8,41.7 69.8,43 "
   id="polygon3761"
   style="fill:#9a916c" />
					<rect
   width="2.4000001"
   height="2.4000001"
   x="69.199997"
   y="48.5"
   id="rect3763"
   style="fill:#8d8c8c" />
					<rect
   width="1.2"
   height="1.2"
   x="69.800003"
   y="49"
   id="rect3765"
   style="fill:#8c8664" />
					<polygon
   points="71.5,48.5 69.3,48.5 69.8,49 71,49 "
   id="polygon3767"
   style="fill:#b8af83" />
					<polygon
   points="71.5,50.7 71,50.2 71,49 71.5,48.5 "
   id="polygon3769"
   style="fill:#817a5c" />
					<polygon
   points="69.3,50.7 69.8,50.2 71,50.2 71.5,50.7 "
   id="polygon3771"
   style="fill:#5f5c44" />
					<polygon
   points="69.3,50.7 69.3,48.5 69.8,49 69.8,50.2 "
   id="polygon3773"
   style="fill:#9a916c" />
					<rect
   width="2.4000001"
   height="2.4000001"
   x="69.199997"
   y="55.700001"
   id="rect3775"
   style="fill:#8d8c8c" />
					<rect
   width="1.2"
   height="1.2"
   x="69.800003"
   y="56.299999"
   id="rect3777"
   style="fill:#8c8664" />
					<polygon
   points="71.5,55.7 69.3,55.7 69.8,56.3 71,56.3 "
   id="polygon3779"
   style="fill:#b8af83" />
					<polygon
   points="71.5,58 71,57.5 71,56.3 71.5,55.7 "
   id="polygon3781"
   style="fill:#817a5c" />
					<polygon
   points="69.3,58 69.8,57.5 71,57.5 71.5,58 "
   id="polygon3783"
   style="fill:#5f5c44" />
					<polygon
   points="69.3,58 69.3,55.7 69.8,56.3 69.8,57.5 "
   id="polygon3785"
   style="fill:#9a916c" />
					<rect
   width="2.4000001"
   height="2.4000001"
   x="69.199997"
   y="63"
   id="rect3787"
   style="fill:#8d8c8c" />
					<rect
   width="1.2"
   height="1.2"
   x="69.800003"
   y="63.599998"
   id="rect3789"
   style="fill:#8c8664" />
					<polygon
   points="71.5,63 69.3,63 69.8,63.6 71,63.6 "
   id="polygon3791"
   style="fill:#b8af83" />
					<polygon
   points="71.5,65.4 71,64.9 71,63.6 71.5,63 "
   id="polygon3793"
   style="fill:#817a5c" />
					<polygon
   points="69.3,65.4 69.8,64.9 71,64.9 71.5,65.4 "
   id="polygon3795"
   style="fill:#5f5c44" />
					<polygon
   points="69.3,65.4 69.3,63 69.8,63.6 69.8,64.9 "
   id="polygon3797"
   style="fill:#9a916c" />
					<rect
   width="2.4000001"
   height="2.4000001"
   x="69.199997"
   y="70.300003"
   id="rect3799"
   style="fill:#8d8c8c" />
					<rect
   width="1.2"
   height="1.2"
   x="69.800003"
   y="71"
   id="rect3801"
   style="fill:#8c8664" />
					<polygon
   points="71.5,70.3 69.3,70.3 69.8,71 71,71 "
   id="polygon3803"
   style="fill:#b8af83" />
					<polygon
   points="71.5,72.6 71,72.1 71,71 71.5,70.3 "
   id="polygon3805"
   style="fill:#817a5c" />
					<polygon
   points="69.3,72.6 69.8,72.1 71,72.1 71.5,72.6 "
   id="polygon3807"
   style="fill:#5f5c44" />
					<polygon
   points="69.3,72.6 69.3,70.3 69.8,71 69.8,72.1 "
   id="polygon3809"
   style="fill:#9a916c" />
					<rect
   width="2.4000001"
   height="2.4000001"
   x="69.199997"
   y="77.599998"
   id="rect3811"
   style="fill:#8d8c8c" />
					<rect
   width="1.2"
   height="1.2"
   x="69.800003"
   y="78.199997"
   id="rect3813"
   style="fill:#8c8664" />
					<polygon
   points="71.5,77.6 69.3,77.6 69.8,78.2 71,78.2 "
   id="polygon3815"
   style="fill:#b8af83" />
					<polygon
   points="71.5,79.9 71,79.4 71,78.2 71.5,77.6 "
   id="polygon3817"
   style="fill:#817a5c" />
					<polygon
   points="69.3,79.9 69.8,79.4 71,79.4 71.5,79.9 "
   id="polygon3819"
   style="fill:#5f5c44" />
					<polygon
   points="69.3,79.9 69.3,77.6 69.8,78.2 69.8,79.4 "
   id="polygon3821"
   style="fill:#9a916c" />
					<rect
   width="2.4000001"
   height="2.4000001"
   x="69.199997"
   y="84.900002"
   id="rect3823"
   style="fill:#8d8c8c" />
					<rect
   width="1.2"
   height="1.2"
   x="69.800003"
   y="85.5"
   id="rect3825"
   style="fill:#8c8664" />
					<polygon
   points="71.5,84.9 69.3,84.9 69.8,85.5 71,85.5 "
   id="polygon3827"
   style="fill:#b8af83" />
					<polygon
   points="71.5,87.3 71,86.8 71,85.5 71.5,84.9 "
   id="polygon3829"
   style="fill:#817a5c" />
					<polygon
   points="69.3,87.3 69.8,86.8 71,86.8 71.5,87.3 "
   id="polygon3831"
   style="fill:#5f5c44" />
					<polygon
   points="69.3,87.3 69.3,84.9 69.8,85.5 69.8,86.8 "
   id="polygon3833"
   style="fill:#9a916c" />
					<rect
   width="2.4000001"
   height="2.4000001"
   x="69.199997"
   y="92.199997"
   id="rect3835"
   style="fill:#8d8c8c" />
					<rect
   width="1.2"
   height="1.2"
   x="69.800003"
   y="92.900002"
   id="rect3837"
   style="fill:#8c8664" />
					<polygon
   points="71.5,92.2 69.3,92.2 69.8,92.9 71,92.9 "
   id="polygon3839"
   style="fill:#b8af83" />
					<polygon
   points="71.5,94.5 71,94 71,92.9 71.5,92.2 "
   id="polygon3841"
   style="fill:#817a5c" />
					<polygon
   points="69.3,94.5 69.8,94 71,94 71.5,94.5 "
   id="polygon3843"
   style="fill:#5f5c44" />
					<polygon
   points="69.3,94.5 69.3,92.2 69.8,92.9 69.8,94 "
   id="polygon3845"
   style="fill:#9a916c" />
				</g>
			</g>
			<rect
   width="21.5"
   height="21.5"
   x="26.799999"
   y="4.8000002"
   id="rect3847"
   style="fill:none;stroke:#ffffff;stroke-width:0.5" />
			<circle
   cx="64.800003"
   cy="31.1"
   r="2.0999999"
   id="circle3849"
   style="fill:#09809e" />
			<circle
   cx="51.799999"
   cy="23.799999"
   r="2.0999999"
   id="circle3851"
   style="fill:#09809e" />
			<circle
   cx="52.5"
   cy="19.299999"
   r="1.4"
   id="circle3853"
   style="fill:#09809e" />
			<circle
   cx="9.6000004"
   cy="94"
   r="1.4"
   id="circle3855"
   style="fill:#09809e" />
			<circle
   cx="54.700001"
   cy="33"
   r="4.0999999"
   id="circle3857"
   style="fill:#09809e" />
		</g>
	</g>
	
		<text
   transform="matrix(0,1,-1,0,67.7004,104.8204)"
   id="text3859"
   style="font-size:5.06899977px;fill:#ffffff;font-family:OCRA">3V</text>

	
		<text
   transform="matrix(0,1,-1,0,2.7522,104.8204)"
   id="text3861"
   style="font-size:5.06899977px;fill:#ffffff;font-family:OCRA">3V</text>

	
		<text
   transform="matrix(0,1,-1,0,24.4001,101.1964)"
   id="text3863"
   style="font-size:5.06899977px;fill:#ffffff;font-family:OCRA">GND</text>

	
		<text
   transform="matrix(0,1,-1,0,17.1833,101.1964)"
   id="text3865"
   style="font-size:5.06899977px;fill:#ffffff;font-family:OCRA">RST</text>

	
		<text
   transform="matrix(0,1,-1,0,9.9665,101.1964)"
   id="text3867"
   style="font-size:5.06899977px;fill:#ffffff;font-family:OCRA">DTR</text>

	
		<text
   transform="matrix(0,1,-1,0,31.6164,101.1964)"
   id="text3869"
   style="font-size:5.06899977px;fill:#ffffff;font-family:OCRA">RTS</text>

	
		<text
   transform="matrix(0,1,-1,0,38.8332,101.1964)"
   id="text3871"
   style="font-size:5.06899977px;fill:#ffffff;font-family:OCRA">+5V</text>

	
		<text
   transform="matrix(0,1,-1,0,46.0515,104.8204)"
   id="text3873"
   style="font-size:5.06899977px;fill:#ffffff;font-family:OCRA">RX</text>

	
		<text
   transform="matrix(0,1,-1,0,53.2673,104.8204)"
   id="text3875"
   style="font-size:5.06899977px;fill:#ffffff;font-family:OCRA">TX</text>

	
		<text
   transform="matrix(0,1,-1,0,60.4831,101.1964)"
   id="text3877"
   style="font-size:5.06899977px;fill:#ffffff;font-family:OCRA">CTS</text>

</g>
</svg>